<svg xmlns="http://www.w3.org/2000/svg" width="783" height="175" viewBox="0 0 783 175">
  <g fill="none" fill-rule="evenodd">
    <path fill="#0F1820" fill-rule="nonzero" d="M235.870615,109.659651 C233.233901,113.176429 228.670333,118 222.991539,118 L210.315596,118 C208.096287,117.952409 205.928405,117.328696 204.028407,116.191136 C201.201743,114.208608 198.704191,111.801545 196.625693,109.05663 C195.51916,107.350663 194.953926,105.355207 195.002938,103.327783 L195.002938,71.6722167 C194.954668,69.6764169 195.520681,67.7133508 196.625693,66.0441215 C197.842484,64.3361083 201.898522,60.0147072 204.028407,58.808864 C205.947879,57.7160096 208.103998,57.0956802 210.315596,57 L222.991539,57 C228.670333,57 233.233901,61.9234294 235.870615,65.340349 C236.654606,66.4672678 237.365824,67.6422407 238,68.8582187 L227.656473,71.772075 C227.656473,71.772075 224.614395,68.0535953 223.092805,67.149213 C222.973646,67.0698443 222.83013,67.0344991 222.687342,67.0493547 L210.72106,67.0493547 C210.580538,67.0555114 210.442678,67.0894637 210.315596,67.149213 C208.507161,68.3007551 206.954511,69.8054578 205.752429,71.5714651 C205.668193,71.9335668 205.633959,72.3053261 205.650662,72.6765566 L205.650662,103.227925 C205.650662,104.433768 208.794507,107.046263 210.315596,107.850787 C210.416762,107.950645 210.923992,107.950645 211.025257,107.950645 L222.586176,107.950645 C222.760636,107.95742 222.934239,107.923202 223.092805,107.850787 C225.222791,106.845554 227.656473,103.127074 227.656473,103.127074 L238,105.840321 C237.444266,107.192001 236.729529,108.473974 235.870615,109.659651 Z"/>
    <polygon fill="#0F1820" fill-rule="nonzero" points="247 118 247 105 259 105 259 118"/>
    <polygon fill="#0F1820" fill-rule="nonzero" points="302.451 118 302.451 92.804 280.549 92.804 280.549 118 270 118 270 57 280.549 57 280.549 82.604 302.451 82.604 302.451 57 313 57 313 118"/>
    <polygon fill="#0F1820" fill-rule="nonzero" points="324 118 324 105 336 105 336 118"/>
    <path fill="#0F1820" fill-rule="nonzero" d="M411.055427 86.2759295C409.440809 88.2778734 407.609294 90.0913805 405.595033 91.6826355 404.799006 92.2955907 403.911736 92.7774622 402.966217 93.1103315L415 118 403.471534 118 392.246402 93.9260426 380.617445 93.9260426 380.617445 118 370 118 370 57 398.414966 57C400.974525 57.02293 403.471103 57.8032982 405.595043 59.244314 407.614125 60.9062622 409.445328 62.7877819 411.055437 64.8547462 412.248532 66.7064697 412.880989 68.868705 412.875502 71.0771633L412.875502 80.0535124C412.895366 82.2640242 412.261707 84.4303577 411.055427 86.2759295zM402.258048 71.1794295C402.261848 70.9374068 402.22763 70.6963038 402.156667 70.4650777 401.549978 69.3434749 399.931677 67.3027864 398.921162 67.2004195L380.617435 67.2004195 380.617435 83.7256231 398.414956 83.7256231C399.324989 83.7256231 401.348015 81.7872008 402.156667 80.3596056 402.2174 80.2317697 402.251884 80.0928674 402.258048 79.9512462L402.258048 71.1794295zM469.376885 108.955879C468.059619 110.663892 464.108721 114.985293 461.980422 116.191136 460.076624 117.315409 457.914632 117.938088 455.699892 118L440.301066 118C438.083818 117.952323 435.917952 117.328618 434.019635 116.191136 431.892236 114.985293 427.839771 110.663892 426.624172 108.955879 425.518898 107.250159 424.954194 105.255052 425.002906 103.227925L425.002906 71.772075C424.954194 69.744948 425.518898 67.7498408 426.624172 66.0441215 427.839771 64.3361083 431.892236 60.0147072 434.019635 58.808864 435.917952 57.671382 438.083818 57.0476774 440.301066 57L455.699892 57C457.914632 57.0619121 460.076624 57.6845905 461.980422 58.808864 464.108721 60.0147072 468.059619 64.3361083 469.376885 66.0441215 470.481803 67.7499488 471.046124 69.7450568 470.997051 71.772075L470.997051 103.227925C471.046124 105.254943 470.481803 107.250051 469.376885 108.955879zM435.640801 103.127074C435.640801 103.127074 435.640801 103.428535 435.741467 103.529386 436.931485 105.242522 438.445513 106.710149 440.199499 107.850787 440.35792 107.923171 440.531345 107.957387 440.705632 107.950645L455.294325 107.950645C455.467945 107.949686 455.639777 107.915791 455.800558 107.850787 457.554936 106.710633 459.069051 105.242923 460.258589 103.529386 460.320351 103.403773 460.354947 103.266736 460.360156 103.127074L460.360156 72.0735358C460.360156 72.0735358 460.360156 71.6722167 460.258589 71.5714651 459.068136 69.8307695 457.555337 68.330112 455.800558 67.149213 455.642124 67.0767576 455.468649 67.0425383 455.294325 67.0493547L440.705632 67.0493547C440.705632 67.0493547 440.301066 67.0493547 440.199499 67.149213 438.445124 68.3305966 436.932409 69.8311701 435.741467 71.5714651 435.675933 71.7309199 435.641764 71.9013412 435.640801 72.0735358L435.640801 103.127074zM525.26673 110.24752C523.682511 112.280251 521.875673 114.127868 519.880234 115.755585 517.708141 117.198257 515.165795 117.977876 512.561174 118L484 118 484 57 512.561174 57C515.180229 57.0274613 517.73046 57.8451314 519.880234 59.3466809 521.87591 60.9741373 523.682775 62.8217823 525.26673 64.8547462 526.458135 66.7429718 527.060067 68.9454323 526.995268 71.1794295L526.995268 78.7271757C526.995268 83.0122789 525.368734 85.2555853 523.031288 87.6022662 525.368734 89.9480402 526.995268 92.0899873 526.995268 96.3750904L526.995268 104.12747C527.036318 106.294337 526.434663 108.424554 525.26673 110.24752zM516.32216 78.5235502L516.32216 71.2807889C516.309786 71.1073553 516.275853 70.9361548 516.221151 70.7711709 515.305429 69.1387411 513.374993 67.2004195 512.460174 67.2004195L494.672114 67.2004195 494.672114 82.6039195 512.561174 82.6039195C513.475992 82.6039195 515.509435 80.7678642 516.221151 79.237902 516.303066 79.0092031 516.337442 78.766091 516.32216 78.5235502zM516.32216 103.71911L516.32216 96.4764498C516.324709 96.3012939 516.290285 96.1275803 516.221151 95.9667311 515.305429 94.334402 513.374993 92.4983466 512.460174 92.4983466L494.672114 92.4983466 494.672114 107.79948 512.561174 107.79948C513.475992 107.79948 515.509435 105.963525 516.221151 104.433462 516.288985 104.201482 516.323007 103.960871 516.32216 103.71911z"/>
    <polygon fill="#0F1820" fill-rule="nonzero" points="541 118 541 57 552 57 552 118"/>
    <polygon fill="#0F1820" fill-rule="nonzero" points="599.716 118 578.673 77.503 578.673 118 568 118 568 57 579.486 57 600.326 98.006 600.326 57 611 57 611 118"/>
    <path fill="#0F1820" fill-rule="nonzero" d="M668.359815 108.955879C667.13445 110.764743 663.049767 114.985293 660.905454 116.191136 658.966687 117.270538 656.798774 117.889908 654.574084 118L636.806145 118C630.781999 118 626.492476 113.176429 623.837997 109.659651 623.137054 108.674062 622.522191 107.631818 622 106.544093L632.10883 103.227925C633.39475 104.95564 634.905432 106.509856 636.602203 107.850787 636.831109 107.931916 637.074508 107.965905 637.317311 107.950645L654.063827 107.950645C654.272922 107.95995 654.481673 107.92593 654.676559 107.850787 656.208139 107.046263 659.27141 104.031457 659.27141 103.227925L659.27141 97.2982697C659.273091 96.5305925 658.781743 95.8456601 658.046136 95.5902566L631.496097 88.1533967C626.288625 86.7458517 623.531681 81.8214297 623.531681 77.1995603L623.531681 71.772075C623.469717 69.7572899 624.001651 67.7679214 625.06327 66.0441215 627.190679 63.2656213 629.739335 60.8253861 632.619995 58.808864 634.552679 57.7160785 636.723631 57.0957513 638.950458 57L654.063827 57C660.190448 57 664.377506 61.9234294 667.032076 65.340349 667.837556 66.4383734 668.522022 67.617636 669.073913 68.8582187L658.761243 71.772075C657.520586 70.0074891 656.004005 68.447239 654.267768 67.149213 654.267768 67.149213 654.165293 67.0493547 653.655136 67.0493547L639.256774 67.0493547C639.04771 67.0400411 638.838991 67.0740621 638.644142 67.149213 637.010995 67.9537371 634.253042 70.7678343 634.253042 71.5714651L634.253042 76.5966387C634.214852 77.3447606 634.667662 78.0329067 635.37694 78.3046518L662.028344 85.942221C667.235917 87.3487733 669.99387 92.373947 669.99387 96.8960573L669.99387 103.227925C670.06631 105.257857 669.495234 107.259685 668.359815 108.955879zM725.376902 108.955879C724.059613 110.663892 720.108707 114.985293 717.980403 116.191136 716.076615 117.315423 713.914621 117.938102 711.69988 118L696.301102 118C694.083822 117.95234 691.917922 117.328634 690.019578 116.191136 687.892175 114.985293 683.839682 110.663892 682.62408 108.955879 681.518832 107.250151 680.954161 105.255043 681.00291 103.227925L681.00291 71.772075C680.954161 69.7449574 681.518832 67.7498488 682.62408 66.0441215 683.839682 64.3361083 687.892175 60.0147072 690.019578 58.808864 691.917922 57.6713656 694.083822 57.0476603 696.301102 57L711.69988 57C713.914621 57.061898 716.076615 57.6845775 717.980403 58.808864 720.108707 60.0147072 724.059613 64.3361083 725.376902 66.0441215 726.481806 67.749955 727.046121 69.7450601 726.997051 71.772075L726.997051 103.227925C727.046121 105.25494 726.481806 107.250045 725.376902 108.955879zM691.640748 103.127074C691.640748 103.127074 691.640748 103.428535 691.741414 103.529386 692.931434 105.242522 694.445465 106.710149 696.199455 107.850787 696.357911 107.923174 696.53137 107.95739 696.705689 107.950645L711.294413 107.950645C711.468001 107.94969 711.639801 107.915795 711.800547 107.850787 713.554951 106.71066 715.069074 105.242945 716.258587 103.529386 716.320407 103.403789 716.355039 103.266746 716.360254 103.127074L716.360254 72.0735358C716.360254 72.0735358 716.360254 71.6722167 716.258587 71.5714651 715.068159 69.8307473 713.555352 68.3300851 711.800547 67.149213 711.642147 67.07676 711.468705 67.0425405 711.294413 67.0493547L696.705689 67.0493547C696.705689 67.0493547 696.301122 67.0493547 696.199455 67.149213 694.445076 68.3305966 692.932358 69.8311701 691.741414 71.5714651 691.67588 71.7309199 691.64171 71.9013412 691.640748 72.0735358L691.640748 103.127074z"/>
    <polygon fill="#0F1820" fill-rule="nonzero" points="771.716 118 750.673 77.503 750.673 118 740 118 740 57 751.486 57 772.326 98.006 772.326 57 783 57 783 118"/>
    <polygon fill="#0078AE" fill-rule="nonzero" points="55.762 42.119 72.239 32.726 72.239 71.857 75.998 74 79.763 71.853 79.763 32.727 96.238 42.12 100 35.684 76 22 52 35.684"/>
    <polygon fill="#0078AE" fill-rule="nonzero" points="46.395 128.538 30.139 119.107 64 99.462 64 95.155 60.284 93 26.425 112.644 26.425 93.782 19 93.782 19 121.261 42.682 135"/>
    <path fill="#0078AE" fill-rule="nonzero" d="M75.9992697,0 L0,43.7501995 L0,131.249801 L75.9992697,175 L152,131.249801 L152,43.7501995 L75.9992697,0 Z M144.532856,126.951045 L75.9992697,166.402588 L7.4671644,126.951045 L7.4671644,48.0489554 L75.9992697,8.59741202 L144.532856,48.0489554 L144.532856,126.951045 Z"/>
    <polygon fill="#0078AE" fill-rule="nonzero" points="106.37 47.465 122.766 56.898 76.498 83.52 30.234 56.898 46.63 47.464 42.885 41 19 54.743 19 82.23 26.489 82.23 26.489 63.362 72.758 89.986 72.757 143.227 56.359 133.792 52.615 140.256 76.5 154 100.385 140.256 96.641 133.792 80.245 143.226 80.245 89.981 126.511 63.362 126.511 82.23 134 82.23 134 54.743 110.116 41"/>
    <polygon fill="#0078AE" fill-rule="nonzero" points="125.574 93.783 125.574 112.645 91.711 93 88 95.153 88 99.465 121.86 119.107 105.603 128.538 109.317 135 133 121.261 133 93.783"/>
    <path fill="#0078AE" fill-rule="nonzero" d="M145.910433,142.801203 L143.967647,142.801203 L143.967647,148 L142.943512,148 L142.943512,142.801203 L141,142.801203 L141,142 L145.910433,142 L145.910433,142.801203 Z M154,148 L152.975969,148 L152.975969,142.990825 L152.945268,142.990825 L150.911622,148 L150.264511,148 L148.230243,142.990825 L148.200268,142.990825 L148.200268,148 L147.176133,148 L147.176133,142 L148.757973,142 L150.610729,146.558436 L152.433511,142 L154,142 L154,148 Z"/>
  </g>
</svg>
