<?xml version="1.0" encoding="utf-8"?>
<!-- Generator: Adobe Illustrator 22.0.1, SVG Export Plug-In . SVG Version: 6.00 Build 0)  -->
<svg version="1.1" id="Layer_1" xmlns="http://www.w3.org/2000/svg" xmlns:xlink="http://www.w3.org/1999/xlink" x="0px" y="0px"
	 viewBox="0 0 266.4 302.4" style="enable-background:new 0 0 266.4 302.4;" xml:space="preserve">
<style type="text/css">
	.st0{fill:#0078ae;}
</style>
<g>
	<path class="st0" d="M133.2,18"/>
</g>
<g>
	<g>
		<polygon class="st0" points="102.7,81.4 127.5,67.1 127.5,126.8 133.2,130 138.9,126.8 138.9,67.1 163.7,81.4 169.3,71.6
			133.2,50.7 97.1,71.6 		"/>
		<polygon class="st0" points="88,212.5 63.2,198.2 114.9,168.3 114.9,161.8 109.2,158.5 57.5,188.3 57.5,159.7 46.2,159.7
			46.2,201.4 82.3,222.3 		"/>
		<path class="st0" d="M133.2,18L17.9,84.6v133.2l115.3,66.6l115.3-66.6V84.6L133.2,18z M237.2,211.2l-104,60l-104-60V91.2l104-60
			l104,60V211.2z"/>
		<polygon class="st0" points="178.4,89.9 203.2,104.2 133.2,144.7 63.2,104.2 88,89.9 82.3,80.1 46.2,101 46.2,142.7 57.5,142.7
			57.5,114.1 127.5,154.5 127.5,235.3 102.7,221 97.1,230.8 133.2,251.7 169.3,230.8 163.7,221 138.9,235.3 138.9,154.5
			208.9,114.1 208.9,142.7 220.2,142.7 220.2,101 184.1,80.1 		"/>
		<polygon class="st0" points="208.9,159.7 208.9,188.3 157.2,158.5 151.5,161.8 151.5,168.3 203.2,198.2 178.4,212.5 184.1,222.3
			220.2,201.4 220.2,159.7 		"/>
	</g>
	<g>
		<g>
			<path class="st0" d="M238.8,234.1h-2.8v7.9h-1.5v-7.9h-2.8v-1.2h7.2V234.1z M250.6,242h-1.5v-7.6h0l-3,7.6h-0.9l-3-7.6h0v7.6
				h-1.5v-9.1h2.3l2.7,6.9l2.7-6.9h2.3V242z"/>
		</g>
	</g>
</g>
</svg>
